<?xml version="1.0" encoding="utf-8"?>
<!-- Generator: Adobe Illustrator 25.3.1, SVG Export Plug-In . SVG Version: 6.00 Build 0)  -->
<svg version="1.1" id="nft-chain" xmlns="http://www.w3.org/2000/svg" xmlns:xlink="http://www.w3.org/1999/xlink" x="0px" y="0px"
	 viewBox="0 0 512 512" style="enable-background:new 0 0 512 512;" xml:space="preserve">
<g>
	<path d="M261.9,247.5c4.8,0,8.8-3.9,8.8-8.7s-3.9-8.7-8.8-8.7h-26.4c-4.8,0-8.8,3.9-8.8,8.7v52.4c0,4.8,3.9,8.7,8.8,8.7
		s8.8-3.9,8.8-8.7v-17.5h17.6c4.8,0,8.8-3.9,8.8-8.7c0-4.8-3.9-8.7-8.8-8.7h-17.6v-8.7H261.9z"/>
	<path d="M209.2,299.9c4.8,0,8.8-3.9,8.8-8.7v-52.4c0-4.8-3.9-8.7-8.8-8.7s-8.8,3.9-8.8,8.7v13.9l-20.1-20.1
		c-2.5-2.5-6.3-3.2-9.6-1.9c-3.2,1.3-5.4,4.6-5.4,8.1v52.4c0,4.8,3.9,8.7,8.8,8.7s8.8-3.9,8.8-8.7v-31.4l17.6,17.5v13.9
		C200.4,296,204.4,299.9,209.2,299.9z"/>
	<path d="M305.9,299.9c4.8,0,8.8-3.9,8.8-8.7v-43.7h8.8c4.8,0,8.8-3.9,8.8-8.7s-3.9-8.7-8.8-8.7h-35.2c-4.8,0-8.8,3.9-8.8,8.7
		s3.9,8.7,8.8,8.7h8.8v43.7C297,296,301,299.9,305.9,299.9z"/>
	<path d="M502.9,29l6.3-6.2c3.5-3.4,3.5-9,0-12.3c-3.5-3.4-9-3.4-12.4,0l-6.3,6.2l-6.3-6.2c-3.5-3.4-9-3.4-12.4,0s-3.5,9,0,12.3
		l6.3,6.2l-6.3,6.2c-3.5,3.4-3.5,9,0,12.3c1.7,1.7,3.9,2.6,6.3,2.6c2.4,0,4.5-0.9,6.3-2.6l6.3-6.2l6.3,6.2c1.7,1.7,3.9,2.6,6.3,2.6
		c2.4,0,4.5-0.9,6.3-2.6c3.5-3.4,3.5-9,0-12.3L502.9,29z"/>
	<ellipse cx="33.4" cy="273.7" rx="8.8" ry="8.7"/>
	<path d="M450.7,80.4l-79.1-43.7c-2.7-1.5-5.9-1.5-8.5,0l-79.1,43.7c-2.8,1.6-4.5,4.5-4.5,7.6V134h-61.6V88c0-3.1-1.7-6-4.5-7.6
		l-79.1-43.7c-2.7-1.5-5.9-1.5-8.5,0L46.6,80.4c-2.8,1.6-4.5,4.5-4.5,7.6v96.1c0,3.1,1.7,6,4.5,7.6l74.6,41.2v32
		c0,4.8,3.9,8.7,8.8,8.7s8.8-3.9,8.8-8.7v-32l74.6-41.2c2.8-1.6,4.5-4.5,4.5-7.6v-32.8h61.6v32.8c0,3.1,1.7,6,4.5,7.6l74.6,41.2v32
		c0,4.8,3.9,8.7,8.8,8.7c4.8,0,8.8-3.9,8.8-8.7v-32l74.6-41.2c2.8-1.6,4.5-4.5,4.5-7.6V88C455.3,84.8,453.5,81.9,450.7,80.4
		L450.7,80.4z M130,54.3L191,88l-61,33.7L69,88L130,54.3z M59.7,179v-76.2l61.6,33.9V213L59.7,179z M200.4,179L138.9,213v-76.2
		l61.6-33.9v31H174c-4.8,0-8.8,3.9-8.8,8.7c0,4.8,3.9,8.7,8.8,8.7h26.4V179z M367.5,54.3l61,33.7l-61,33.7l-61-33.7L367.5,54.3z
		 M297,179v-27.7h26.4c4.8,0,8.8-3.9,8.8-8.7c0-4.8-3.9-8.7-8.8-8.7H297v-31l61.6,33.9V213L297,179z M376.2,213v-76.2l61.6-33.9V179
		L376.2,213z"/>
	<path d="M450.7,333.8l-79.1-43.7c-2.7-1.5-5.9-1.5-8.5,0l-79.1,43.7c-2.8,1.6-4.5,4.5-4.5,7.6v54.7h-61.6v-54.7
		c0-3.1-1.7-6-4.5-7.6l-79.1-43.7c-2.7-1.5-5.9-1.5-8.5,0l-79.1,43.7c-2.8,1.6-4.5,4.5-4.5,7.6v96.1c0,3.1,1.7,6,4.5,7.6l79.1,43.7
		c1.3,0.8,2.8,1.1,4.3,1.1s2.9-0.3,4.3-1.1l79.1-43.7c2.8-1.6,4.5-4.5,4.5-7.6v-24.1h61.6v24.1c0,3.1,1.7,6,4.5,7.6l79.1,43.7
		c1.3,0.8,2.8,1.1,4.3,1.1c1.5,0,2.9-0.3,4.3-1.1l79.1-43.7c2.8-1.6,4.5-4.5,4.5-7.6v-96.1C455.3,338.3,453.5,335.3,450.7,333.8
		L450.7,333.8z M130,307.7l61,33.7l-61,33.7l-61-33.7L130,307.7z M59.7,356.2l61.6,33.9v76.2l-61.6-33.9
		C59.7,432.4,59.7,356.2,59.7,356.2z M200.4,432.4l-61.6,33.9v-76.2l61.6-33.9V396H174c-4.8,0-8.8,3.9-8.8,8.7s3.9,8.7,8.8,8.7h26.4
		V432.4z M367.5,307.7l61,33.7l-61,33.7l-61-33.7L367.5,307.7z M297,413.5h26.4c4.8,0,8.8-3.9,8.8-8.7c0-4.8-3.9-8.7-8.8-8.7H297
		v-39.8l61.6,33.9v76.2L297,432.4V413.5z M376.2,466.4v-76.2l61.6-33.9v76.2L376.2,466.4z"/>
</g>
</svg>
