<svg id="Capa_1" enable-background="new 0 0 512 512" height="512" viewBox="0 0 512 512" width="512" xmlns="http://www.w3.org/2000/svg"><g><path d="m502 427.954h-12v-241.988c0-27.57-22.43-50-50-50h-23.992c-3.076-39.967-36.556-71.552-77.297-71.552-40.742 0-74.222 31.586-77.298 71.552h-46.767c16.268-14.227 26.573-35.11 26.573-58.367 0-42.763-34.79-77.552-77.552-77.552-42.763 0-77.553 34.79-77.553 77.552 0 23.258 10.305 44.141 26.573 58.367h-40.687c-27.57 0-50 22.43-50 50v241.988h-12c-5.522 0-10 4.477-10 10v23c0 28.122 22.879 51 51 51h410c28.121 0 51-22.878 51-51v-23c0-5.523-4.478-10-10-10zm-395.886-350.355c0-31.734 25.818-57.552 57.553-57.552s57.552 25.818 57.552 57.552-25.817 57.552-57.552 57.552-57.553-25.818-57.553-57.552zm232.597 6.815c31.734 0 57.552 25.818 57.552 57.552s-25.817 57.552-57.552 57.552-57.553-25.818-57.553-57.552 25.819-57.552 57.553-57.552zm-296.711 101.552c0-16.542 13.458-30 30-30h190.448c6.613 36.1 38.281 63.552 76.263 63.552 37.98 0 69.649-27.452 76.262-63.552h25.027c16.542 0 30 13.458 30 30v241.988h-428zm450 274.988c0 17.093-13.906 31-31 31h-410c-17.094 0-31-13.907-31-31v-13h154.493v1.5c0 11.322 9.178 20.5 20.5 20.5h122.014c11.322 0 20.5-9.178 20.5-20.5v-1.5h154.493z"/><circle cx="338.711" cy="141.966" r="33.776"/><circle cx="163.667" cy="77.598" r="33.776"/><path d="m375.755 316.255h-42.359c.1-1.613.156-3.229.156-4.848 0-42.763-34.79-77.552-77.552-77.552s-77.552 34.79-77.552 77.552c0 1.619.066 3.235.166 4.848h-42.369c-5.522 0-10 4.477-10 10s4.478 10 10 10h239.51c5.522 0 10-4.477 10-10s-4.478-10-10-10zm-177.307-4.848c0-31.734 25.817-57.552 57.552-57.552s57.552 25.818 57.552 57.552c0 1.621-.089 3.237-.223 4.848h-23.913c.229-1.584.36-3.2.36-4.848 0-18.655-15.122-33.776-33.776-33.776s-33.776 15.122-33.776 33.776c0 1.648.132 3.263.36 4.848h-23.915c-.134-1.61-.221-3.226-.221-4.848z"/></g></svg>