<?xml version="1.0" encoding="UTF-8"?>
<svg xmlns="http://www.w3.org/2000/svg" viewBox="0 0 512 512" width="512" height="512"><g id="outline"><path d="M488,48H24a8,8,0,0,0-8,8V376a8,8,0,0,0,8,8H203.445l21.59,28H194a18.021,18.021,0,0,0-18,18v22a8,8,0,0,0,8,8H328a8,8,0,0,0,8-8V430a18.021,18.021,0,0,0-18-18h-44.95l31.656-24.409h0A17.941,17.941,0,0,0,308.2,384H488a8,8,0,0,0,8-8V56A8,8,0,0,0,488,48ZM320,430v14H192V430a2,2,0,0,1,2-2H318A2,2,0,0,1,320,430Zm-93.7-42.562L206.761,362.1l50.682-39.08,18.435,23.908a7.959,7.959,0,0,0,.861,1.621L226.3,387.438ZM64,336V96H448V336H306.111l83.457-64.353a8,8,0,0,0,1.451-11.22l-19.54-25.342a8,8,0,0,0-11.22-1.45l-2.969,2.29A104.014,104.014,0,1,0,201.031,305.9l-22,16.962A17.948,17.948,0,0,0,172.086,336ZM32,75.314l16,16V340.686l-16,16ZM452.686,80H59.314l-16-16H468.686ZM188.442,338.34a2,2,0,0,1,.362-2.8L236.318,298.9a1.953,1.953,0,0,1,1.211-.418,2,2,0,0,1,.268.018,1.962,1.962,0,0,1,1.327.762l8.549,11.087-50.682,39.08ZM275,319.582l88.694-68.391,9.77,12.671-88.694,68.39Zm60.439-66.833c-.006.012-.009.024-.015.036l-70.194,54.126L251.8,289.489a18,18,0,0,0-25.246-3.263L214.8,295.289A88,88,0,1,1,343,217,87.328,87.328,0,0,1,335.438,252.749Zm-27.465,109.6L300,352h152.69l16,16h-157.8A17.884,17.884,0,0,0,307.973,362.345ZM464,340.686V91.314l16-16V356.686ZM43.314,368l16-16H178.771l12.337,16Zm251.626,6.92-47.516,36.639a2,2,0,0,1-2.805-.363l-8.548-11.087,50.682-39.08,8.549,11.086a2,2,0,0,1-.363,2.806Z"/><path d="M223,193a8,8,0,0,0-8,8v17.194L197.247,196A8,8,0,0,0,183,201v40a8,8,0,0,0,16,0V223.806L216.753,246A8,8,0,0,0,231,241V201A8,8,0,0,0,223,193Z"/><path d="M271,209a8,8,0,0,0,0-16H247a8,8,0,0,0-8,8v40a8,8,0,0,0,16,0v-9h16a8,8,0,0,0,0-16H255v-7Z"/><path d="M295,193a8,8,0,0,0,0,16h5v32a8,8,0,0,0,16,0V209h5a8,8,0,0,0,0-16Z"/></g></svg>
