<svg id="Capa_1" enable-background="new 0 0 512 512" height="512" viewBox="0 0 512 512" width="512" xmlns="http://www.w3.org/2000/svg"><g><path d="m512 30.024h-512v391.903h180.952v60.048h150.096v-60.048h180.952zm-30 30v271.856h-452v-271.856zm-180.952 391.952h-90.096v-30.048h90.096zm-271.048-60.048v-30.048h452v30.048z"/><path d="m271 248.708h181v30h-181z"/><path d="m271 188.66h181v30h-181z"/><path d="m411.968 128.612h40.032v30h-40.032z"/><path d="m271 128.612h110.944v30h-110.944z"/><path d="m120.995 218.66h59.035c33.606 0 60.947-27.341 60.947-60.947v-44.517h-44.517c-18.32 0-34.765 8.136-45.947 20.972-11.182-12.835-27.627-20.972-45.947-20.972h-44.518v44.517c0 33.606 27.341 60.947 60.947 60.947zm75.464-75.464h14.517v14.517c0 17.064-13.883 30.947-30.947 30.947h-14.517v-14.518c0-17.063 13.883-30.946 30.947-30.946zm-106.411 0h14.517c17.064 0 30.947 13.883 30.947 30.946v14.518h-14.518c-17.064 0-30.947-13.883-30.947-30.947v-14.517z"/><path d="m130.092 248.708h110.896v30h-110.896z"/><path d="m60.036 248.708h40.032v30h-40.032z"/></g></svg>