<?xml version="1.0" encoding="UTF-8"?>
<svg width="28px" height="28px" viewBox="0 0 28 28" version="1.1" xmlns="http://www.w3.org/2000/svg" xmlns:xlink="http://www.w3.org/1999/xlink">
    <title>NFT</title>
    <g id="DAPP-DEFI" stroke="none" stroke-width="1" fill="none" fill-rule="evenodd">
        <g id="矿池" transform="translate(-570.000000, -76.000000)" fill-rule="nonzero">
            <g id="编组-7" transform="translate(32.000000, 66.000000)">
                <g id="链接" transform="translate(538.000000, 10.000000)">
                    <rect id="矩形" fill="#000000" opacity="0" x="0" y="0" width="28" height="28"></rect>
                    <path d="M10.8554687,17.1417969 C11.353125,17.6367188 12.1542969,17.6394531 12.6519531,17.1417969 L17.1417969,12.6574219 C17.6394531,12.1597656 17.6367187,11.3558594 17.1417969,10.8609375 C16.6441406,10.3632813 15.8429687,10.3632813 15.3453125,10.8609375 L10.8582031,15.3480469 C10.3632812,15.8402344 10.3632812,16.646875 10.8554687,17.1417969 Z M24.7242187,3.27851562 C22.6871094,1.24140625 19.38125,1.24140625 17.3441406,3.27851562 L14.0492187,6.57070312 C12.4332031,8.18945312 12.0996094,10.6066406 13.0539062,12.5535156 L14.7082031,10.8992187 C14.5003906,9.909375 14.7792969,8.83476562 15.5476563,8.06640625 L18.8398438,4.77421875 C20.0539062,3.565625 22.0144531,3.565625 23.23125,4.77421875 C24.4398438,5.98554687 24.4398438,7.94882812 23.23125,9.165625 L19.9363281,12.4550781 C19.1652344,13.2207031 18.0933594,13.5023437 17.1035156,13.2945312 L15.4492188,14.9488281 C17.3960937,15.9003906 19.8132813,15.5695313 21.4347656,13.9507813 L24.7242187,10.6585938 C26.7613281,8.62148438 26.7613281,5.315625 24.7242187,3.27851563 L24.7242187,3.27851562 Z M13.2945312,17.0980469 C13.5023437,18.0878906 13.2234375,19.1625 12.4550781,19.9308594 L9.16289063,23.2257812 C7.9515625,24.434375 5.98828125,24.434375 4.77695312,23.2257812 C3.56835937,22.0117188 3.56835937,20.0511719 4.77695312,18.834375 L8.06914063,15.5421875 C8.84023438,14.7765625 9.91210938,14.4949219 10.9019531,14.7027344 L12.55625,13.0484375 C10.609375,12.096875 8.1921875,12.4277344 6.57070313,14.0464844 L3.27851562,17.3414062 C1.24140625,19.38125 1.24140625,22.684375 3.27851562,24.7214844 C5.315625,26.7585937 8.62148438,26.7585937 10.6585937,24.7214844 L13.9507813,21.4292969 C15.5695313,19.8105469 15.9003906,17.3933594 14.9488281,15.44375 L13.2945312,17.0980469 L13.2945312,17.0980469 Z" id="形状" fill="#151826"></path>
                </g>
            </g>
        </g>
    </g>
</svg>