<?xml version="1.0" encoding="UTF-8"?>
<svg width="36px" height="36px" viewBox="0 0 36 36" version="1.1" xmlns="http://www.w3.org/2000/svg" xmlns:xlink="http://www.w3.org/1999/xlink">
    <title>编组 7</title>
    <g id="DAPP-DEFI" stroke="none" stroke-width="1" fill="none" fill-rule="evenodd">
        <g id="矿池" transform="translate(-32.000000, -72.000000)" fill-rule="nonzero">
            <g id="编组-7" transform="translate(32.000000, 66.000000)">
                <g id="分享" transform="translate(0.000000, 6.000000)">
                    <rect id="矩形" fill="#000000" opacity="0" x="0" y="0" width="36" height="36"></rect>
                    <path d="M18,0 C8.05886719,0 0,8.05886719 0,18 C0,27.9411328 8.05886719,36 18,36 C27.9411328,36 36,27.9411328 36,18 C36,8.05886719 27.9411328,0 18,0 Z M23.3046562,28.9186875 C21.3200156,28.9186875 19.6903477,27.4001133 19.5134766,25.4615977 L13.3522734,22.9332656 C12.7728633,23.2895742 12.090832,23.4952383 11.3607422,23.4952383 C9.25797656,23.4952383 7.55335547,21.7906172 7.55335547,19.6878516 C7.55335547,17.5850859 9.25797656,15.8804648 11.3607422,15.8804648 C11.7713672,15.8804648 12.1666992,15.94575 12.5372109,16.0660195 L17.0437148,11.5595156 C16.8786914,11.1332461 16.7879883,10.669957 16.7879883,10.1854688 C16.7879883,8.08270313 18.4926094,6.37808203 20.595375,6.37808203 C22.6981406,6.37808203 24.4027617,8.08270313 24.4027617,10.1854688 C24.4027617,12.2882344 22.6981406,13.9928555 20.595375,13.9928555 C19.9039219,13.9928555 19.2555703,13.8084961 18.6966562,13.4863242 L14.5599258,17.6230195 C14.9446406,18.2178633 15.1680937,18.9267188 15.1680937,19.6878516 C15.1680937,20.0990742 15.1026328,20.4949688 14.9820117,20.8659375 L20.1458672,22.9849805 C20.8298672,21.9708281 21.9893555,21.3038789 23.3046211,21.3038789 C25.4073867,21.3038789 27.1120078,23.0085 27.1120078,25.1112656 C27.1120078,27.2140313 25.4074219,28.9186875 23.3046562,28.9186875 L23.3046562,28.9186875 Z" id="形状" fill="#FFFFFF"></path>
                </g>
            </g>
        </g>
    </g>
</svg>